<svg xmlns="http://www.w3.org/2000/svg" viewBox="0 0 800 450" fill="none">
  <defs>
    <linearGradient id="grad1" x1="0%" y1="0%" x2="100%" y2="100%">
      <stop offset="0%" style="stop-color:#ffffff"/>
      <stop offset="100%" style="stop-color:#fafafa"/>
    </linearGradient>
    <linearGradient id="grad2" x1="0%" y1="0%" x2="0%" y2="100%">
      <stop offset="0%" style="stop-color:#ff2227"/>
      <stop offset="100%" style="stop-color:#ff6669"/>
    </linearGradient>
  </defs>
  <rect width="800" height="450" fill="url(#grad1)"/>
  <rect x="50" y="70" width="180" height="240" rx="8" fill="white" stroke="#eee"/>
  <rect x="80" y="100" width="120" height="90" rx="4" fill="url(#grad2)" opacity="0.7"/>
  <rect x="80" y="210" width="50" height="50" rx="4" fill="#fff" stroke="#eee"/>
  <rect x="140" y="210" width="60" height="50" rx="4" fill="#fff" stroke="#eee"/>
  <rect x="260" y="50" width="220" height="260" rx="10" fill="white" stroke="#eee"/>
  <rect x="290" y="80" width="160" height="110" rx="6" fill="url(#grad2)" opacity="0.5"/>
  <rect x="290" y="210" width="80" height="60" rx="4" fill="#fff" stroke="#eee"/>
  <rect x="380" y="210" width="70" height="60" rx="4" fill="#fff" stroke="#eee"/>
  <rect x="510" y="80" width="240" height="200" rx="12" fill="white" stroke="#eee"/>
  <rect x="540" y="110" width="180" height="90" rx="6" fill="url(#grad2)" opacity="0.3"/>
  <rect x="540" y="220" width="70" height="40" rx="4" fill="#fff" stroke="#eee"/>
  <rect x="620" y="220" width="100" height="40" rx="4" fill="#fff" stroke="#eee"/>
  <circle cx="700" cy="360" r="45" fill="url(#grad2)" opacity="0.06"/>
  <circle cx="80" cy="380" r="35" fill="#ff2227" opacity="0.04"/>
</svg>