<svg xmlns="http://www.w3.org/2000/svg" viewBox="0 0 800 450" fill="none">
  <defs>
    <linearGradient id="grad1" x1="0%" y1="0%" x2="100%" y2="100%">
      <stop offset="0%" style="stop-color:#1a1f2e"/>
      <stop offset="100%" style="stop-color:#0a0e17"/>
    </linearGradient>
    <linearGradient id="grad2" x1="0%" y1="0%" x2="0%" y2="100%">
      <stop offset="0%" style="stop-color:#00ff80"/>
      <stop offset="100%" style="stop-color:#00d4ff"/>
    </linearGradient>
    <linearGradient id="grad3" x1="0%" y1="0%" x2="100%" y2="0%">
      <stop offset="0%" style="stop-color:rgba(0,255,128,0.1)"/>
      <stop offset="100%" style="stop-color:rgba(0,212,255,0.1)"/>
    </linearGradient>
  </defs>
  <rect width="800" height="450" fill="url(#grad1)"/>
  <rect x="60" y="50" width="150" height="280" rx="10" fill="rgba(255,255,255,0.04)" stroke="rgba(255,255,255,0.08)"/>
  <rect x="90" y="80" width="90" height="120" rx="6" fill="url(#grad2)" opacity="0.5"/>
  <rect x="90" y="220" width="90" height="80" rx="4" fill="rgba(255,255,255,0.04)" stroke="rgba(255,255,255,0.08)"/>
  <rect x="240" y="100" width="180" height="200" rx="8" fill="rgba(255,255,255,0.04)" stroke="rgba(255,255,255,0.08)"/>
  <rect x="270" y="130" width="120" height="80" rx="4" fill="url(#grad2)" opacity="0.4"/>
  <rect x="270" y="230" width="120" height="40" rx="4" fill="rgba(255,255,255,0.04)" stroke="rgba(255,255,255,0.08)"/>
  <rect x="450" y="70" width="280" height="220" rx="12" fill="rgba(255,255,255,0.04)" stroke="rgba(255,255,255,0.08)"/>
  <rect x="480" y="100" width="220" height="100" rx="6" fill="url(#grad3)"/>
  <rect x="480" y="220" width="80" height="40" rx="4" fill="rgba(255,255,255,0.04)" stroke="rgba(255,255,255,0.08)"/>
  <rect x="570" y="220" width="60" height="40" rx="4" fill="rgba(255,255,255,0.04)" stroke="rgba(255,255,255,0.08)"/>
  <rect x="640" y="220" width="60" height="40" rx="4" fill="rgba(255,255,255,0.04)" stroke="rgba(255,255,255,0.08)"/>
  <circle cx="720" cy="400" r="50" fill="url(#grad2)" opacity="0.08"/>
  <circle cx="50" cy="350" r="30" fill="#00ff80" opacity="0.05"/>
</svg>