<svg xmlns="http://www.w3.org/2000/svg" viewBox="0 0 800 450" fill="none">
  <defs>
    <linearGradient id="grad1" x1="0%" y1="0%" x2="100%" y2="100%">
      <stop offset="0%" style="stop-color:#0d1117"/>
      <stop offset="100%" style="stop-color:#0a0e17"/>
    </linearGradient>
    <linearGradient id="grad2" x1="0%" y1="0%" x2="0%" y2="100%">
      <stop offset="0%" style="stop-color:#ffb800"/>
      <stop offset="100%" style="stop-color:#ff6464"/>
    </linearGradient>
    <linearGradient id="grad3" x1="0%" y1="0%" x2="100%" y2="100%">
      <stop offset="0%" style="stop-color:rgba(255,184,0,0.08)"/>
      <stop offset="100%" style="stop-color:rgba(255,100,100,0.08)"/>
    </linearGradient>
  </defs>
  <rect width="800" height="450" fill="url(#grad1)"/>
  <rect x="50" y="70" width="180" height="240" rx="8" fill="rgba(255,255,255,0.04)" stroke="rgba(255,255,255,0.08)"/>
  <rect x="80" y="100" width="120" height="90" rx="4" fill="url(#grad2)" opacity="0.5"/>
  <rect x="80" y="210" width="50" height="50" rx="4" fill="rgba(255,255,255,0.04)" stroke="rgba(255,255,255,0.08)"/>
  <rect x="140" y="210" width="60" height="50" rx="4" fill="rgba(255,255,255,0.04)" stroke="rgba(255,255,255,0.08)"/>
  <rect x="260" y="50" width="220" height="260" rx="10" fill="rgba(255,255,255,0.04)" stroke="rgba(255,255,255,0.08)"/>
  <rect x="290" y="80" width="160" height="110" rx="6" fill="url(#grad2)" opacity="0.4"/>
  <rect x="290" y="210" width="80" height="60" rx="4" fill="rgba(255,255,255,0.04)" stroke="rgba(255,255,255,0.08)"/>
  <rect x="380" y="210" width="70" height="60" rx="4" fill="rgba(255,255,255,0.04)" stroke="rgba(255,255,255,0.08)"/>
  <rect x="510" y="80" width="240" height="200" rx="12" fill="rgba(255,255,255,0.04)" stroke="rgba(255,255,255,0.08)"/>
  <rect x="540" y="110" width="180" height="90" rx="6" fill="url(#grad3)"/>
  <rect x="540" y="220" width="70" height="40" rx="4" fill="rgba(255,255,255,0.04)" stroke="rgba(255,255,255,0.08)"/>
  <rect x="620" y="220" width="100" height="40" rx="4" fill="rgba(255,255,255,0.04)" stroke="rgba(255,255,255,0.08)"/>
  <circle cx="700" cy="360" r="45" fill="url(#grad2)" opacity="0.06"/>
  <circle cx="80" cy="380" r="35" fill="#ffb800" opacity="0.04"/>
</svg>