<svg xmlns="http://www.w3.org/2000/svg" viewBox="0 0 400 300" width="400" height="300">
    <defs>
      <linearGradient id="grad_20260828866" x1="0%" y1="0%" x2="100%" y2="100%">
        <stop offset="0%" stop-color="#7b2ff7"/>
        <stop offset="100%" stop-color="#00ff80"/>
      </linearGradient>
      <linearGradient id="grad_20260828866_overlay" x1="0%" y1="0%" x2="0%" y2="100%">
        <stop offset="0%" stop-color="black" stop-opacity="0"/>
        <stop offset="100%" stop-color="black" stop-opacity="0.4"/>
      </linearGradient>
      <filter id="grad_20260828866_shadow" x="-20%" y="-20%" width="140%" height="140%">
        <feDropShadow dx="0" dy="4" stdDeviation="8" flood-color="black" flood-opacity="0.3"/>
      </filter>
    </defs>

    <!-- 背景渐变 -->
    <rect width="400" height="300" fill="url(#grad_20260828866)"/>

    <!-- 装饰性圆圈 -->
    <circle cx="57" cy="197" r="50" fill="white" opacity="0.13"/>
      <circle cx="77" cy="43" r="20" fill="white" opacity="0.14"/>
      <circle cx="196" cy="163" r="50" fill="white" opacity="0.11"/>
      <circle cx="333" cy="274" r="40" fill="white" opacity="0.10"/>
      <circle cx="39" cy="126" r="42" fill="white" opacity="0.07"/>

    <!-- 装饰性线条 -->
    <line x1="10" y1="283" x2="105" y2="265" stroke="white" stroke-width="1" opacity="0.07"/>
      <line x1="102" y1="198" x2="205" y2="180" stroke="white" stroke-width="1" opacity="0.09"/>
      <line x1="77" y1="6" x2="172" y2="12" stroke="white" stroke-width="1" opacity="0.10"/>
      <line x1="37" y1="185" x2="126" y2="187" stroke="white" stroke-width="1" opacity="0.07"/>

    <!-- 房屋轮廓装饰 -->
    <g opacity="0.10" fill="none" stroke="white" stroke-width="2" stroke-linejoin="round">
      <path d="M 330 265 L 330 205 L 370 175 L 410 205 L 410 265 Z"/>
      <rect x="345" y="225" width="18" height="40"/>
      <rect x="378" y="215" width="22" height="22"/>
    </g>
    <g opacity="0.08" fill="none" stroke="white" stroke-width="2" stroke-linejoin="round">
      <path d="M -10 285 L -10 245 L 25 220 L 60 245 L 60 285 Z"/>
      <rect x="5" y="255" width="15" height="30"/>
    </g>

    <!-- 底部渐变遮罩 -->
    <rect width="400" height="300" fill="url(#grad_20260828866_overlay)"/>

    <!-- 分类标签 -->
    <rect x="20" y="20" rx="12" ry="12" width="80" height="28" fill="white" opacity="0.2"/>
    <text x="32" y="40" font-size="13" font-weight="600" fill="white" font-family="'Noto Sans SC', sans-serif">全屋定制</text>

    <!-- 图标（装修主题） -->
    <text x="200" y="135" text-anchor="middle" font-size="56" filter="url(#grad_20260828866_shadow)" font-family="'Apple Color Emoji','Segoe UI Emoji','Noto Color Emoji',sans-serif">🗄️</text>

    <!-- 主标题 -->
    <text x="200" y="175" text-anchor="middle" font-size="22" font-weight="700" fill="white" font-family="'Noto Sans SC', sans-serif" letter-spacing="1">浦北装修设计厨房全屋定制：打造…</text>

    <!-- 副标题 -->
    <text x="200" y="240" text-anchor="middle" font-size="13" fill="rgba(255,255,255,0.75)" font-family="'Noto Sans SC', sans-serif" letter-spacing="2">全屋定制 · 品质生活</text>

    <!-- 底部品牌信息 -->
    <line x1="150" y1="270" x2="250" y2="270" stroke="white" stroke-width="1" opacity="0.3"/>
    <text x="200" y="288" text-anchor="middle" font-size="11" fill="rgba(255,255,255,0.5)" font-family="'Noto Sans SC', sans-serif">浦北装修设计 · 专业品质 · 匠心铸就</text>
  </svg>